PathFileType	4	(X/Y/Z)	10_1_39_p0_0-411.trc
DataRate	CameraRate	NumFrames	NumMarkers	Units	OrigDataRate	OrigDataStartFrame	OrigNumFrames
60.0	60.0	5	27	m	60.0	257	412
Frame#	Time	RHip			RKnee			RAnkle			RBigToe			RSmallToe			RHeel			LHip			LKnee			LAnkle			LBigToe			LSmallToe			LHeel			Neck			Head			Nose			RShoulder			RElbow			RWrist			RThumb			RIndex			RPinky			LShoulder			LElbow			LWrist			LThumb			LIndex			LPinky			
		X1	Y1	Z1	X2	Y2	Z2	X3	Y3	Z3	X4	Y4	Z4	X5	Y5	Z5	X6	Y6	Z6	X7	Y7	Z7	X8	Y8	Z8	X9	Y9	Z9	X10	Y10	Z10	X11	Y11	Z11	X12	Y12	Z12	X13	Y13	Z13	X14	Y14	Z14	X15	Y15	Z15	X16	Y16	Z16	X17	Y17	Z17	X18	Y18	Z18	X19	Y19	Z19	X20	Y20	Z20	X21	Y21	Z21	X22	Y22	Z22	X23	Y23	Z23	X24	Y24	Z24	X25	Y25	Z25	X26	Y26	Z26	X27	Y27	Z27	
257	4.283333333333333	0.30705944255591344	0.5345705230787212	0.9170208757019644	0.31283824381904396	0.6682850738566176	1.3859452663936147	0.3221045778464597	0.7963279127962571	1.7935920381242647	0.27848827610519766	0.6081414044871651	1.852244293466768	0.334286311640165	0.6450085013125025	1.853129642888331	0.289978910108624	0.9190674850155943	1.8730504150237193	0.07280743592716547	0.5174824289797738	0.919571994849247	0.07899229614047286	0.6433796887486445	1.3736093371493185	0.07868808782190376	0.7695244545198359	1.7991169944500096	0.1169677403593437	0.6128823381628976	1.8622744181958706	0.051915925097734184	0.6330965669372053	1.8437203859676579	0.09446277125676719	0.8923163182192642	1.8631094529147936	0.19698144167106896	0.38869079820847424	0.3317761608924014	0.22160557078489007	0.2781951559351406	0.10292633754354608	0.22416833974607867	0.24120246895797987	0.23495550140188487	0.36481581947099073	0.4210319318214716	0.43757345423174643	0.40446523792283595	0.5259079648958248	0.7195999892479576	0.4317549493046692	0.5014277136239222	0.9767350746540954	0.36291402138951967	0.48097965126405595	1.117180491013797	0.39292658612591236	0.47497206469152387	1.1453214162742722	0.42746418957413335	0.5839047034081392	1.1534655943902725	0.04506690925764915	0.3933138084317992	0.41491725144178915	-0.03143425365295255	0.46350164475175004	0.7032114194867549	-0.03130643813249463	0.47323142430596954	0.9572887483498063	0.016963439182456172	0.43268207852982554	1.0688518651166408	-0.005568915969988693	0.45082598758179215	1.103444608006818	-0.039521316606073054	0.4903321752964555	1.100161593500487
258	4.3	0.3064592730925268	0.5321748584612993	0.9129717871161573	0.31208021681262993	0.6696838247009157	1.3905090526277764	0.32212994837837367	0.7963053709470862	1.7936251210923548	0.27834752806337404	0.6078877896379411	1.8518528697711751	0.3340263489246113	0.6443856616631269	1.8526856724381946	0.29008170412024425	0.9185240309951404	1.8727703287286817	0.07279419942893063	0.517486118955746	0.9194756371921164	0.07898366757653247	0.6433289863255188	1.3737683472125366	0.08309845030660673	0.77746825529276	1.8014321922547947	0.11698609309055087	0.6129574097513224	1.8623233835572632	0.05284697487639881	0.6364212135875931	1.849145409571346	0.09398954519453236	0.8935413447418423	1.859372576330323	0.20177684487677336	0.3761459862119906	0.3329308201534492	0.22168033025871098	0.2781463859188931	0.10292411076117428	0.22413470883066453	0.24118587434438635	0.23492948534292626	0.3605776849955569	0.4340800651652843	0.43676749638322	0.40444221001975	0.5259379937059232	0.7196111304980447	0.4316957079170344	0.5014535185506309	0.9767776877934682	0.3629522266964246	0.48068212962408857	1.1172806512422564	0.3930346318419171	0.4746256950372479	1.1452403673631462	0.42738796225336106	0.5839395341603074	1.1538835267313157	0.046993586706243824	0.4052013110224744	0.4105438107201922	-0.031425775694495665	0.46350514342502686	0.7031750286353343	-0.03129418902814169	0.4732344950549949	0.9574309987562163	0.01748631758221767	0.4342754906941333	1.073597269450658	-0.005294258593351791	0.4497252695562989	1.103285628061878	-0.03924193781558489	0.4930714882012611	1.1037324383009932
259	4.316666666666666	0.3070328127197617	0.5345145084302251	0.9169262162888348	0.31211035020031386	0.6695189780304341	1.3904096458336743	0.3220480974100832	0.7965282511813881	1.7934265250044403	0.27358425840120376	0.6230648241919208	1.8582728485732138	0.3340302057959826	0.6446989549185317	1.8527694391756022	0.2900589625977164	0.9188606968364782	1.8728867995756762	0.0733709025374999	0.5163504990231372	0.9158069227686666	0.0790249251815923	0.6433463379766996	1.373610848115386	0.08310909413860094	0.7776320167390991	1.8012404135102444	0.11687451989612165	0.6134093107002252	1.8624632305854953	0.05219544268282996	0.6379868400951443	1.8454133744549712	0.09403676648454339	0.893784189185087	1.8594663136003942	0.19695518258459777	0.38873939961704645	0.3317125861334575	0.22163581874310123	0.2782415368555709	0.1029306845581622	0.2240673551223064	0.24129123024022114	0.23488892728237196	0.3605594286478283	0.4341088986286323	0.43675098880353225	0.40413407971174004	0.5268697352559327	0.7231722606947052	0.4312623800513153	0.5026509740506041	0.9802160133565827	0.36292208013416977	0.4808307349908984	1.1173083931552967	0.3928714900625961	0.47496098888784477	1.1452962433716956	0.42736320325009164	0.58414677949884	1.1538106223725866	0.039857574482482894	0.40500469295104197	0.4140972080907303	-0.031459982609871234	0.46348067495083534	0.7031872997179504	-0.03128432795283135	0.47313155484362057	0.9574211765407538	0.01748690246279656	0.43436712795190147	1.0734991046056674	-0.005296553282533595	0.44968924150107864	1.1032920763716532	-0.03921585094795135	0.49289777969573806	1.1037207403659324
260	4.333333333333333	0.30696423863045097	0.5347438845560594	0.9170062927608493	0.3120221451597338	0.6696777069864928	1.390464106930336	0.32205588046925404	0.7964785411817493	1.7935624873417912	0.27835558609797273	0.6079724067859938	1.8519535432073984	0.3339568390348699	0.644655637688054	1.8527268443249088	0.2899286305976299	0.9191008652463346	1.8729448850158275	0.07277914664571089	0.5174731914564746	0.9195400207674692	0.07895026429837028	0.6434245930425798	1.3738370470796313	0.08309232713229626	0.7776295682529722	1.801314386587051	0.11688715162561539	0.6132290524766707	1.8623791194832973	0.052800556202224416	0.6364491748189398	1.849048715746553	0.09398603843322755	0.8939024226138179	1.8595401116475119	0.19695235871041014	0.3887211575664849	0.3317185157767575	0.22166861367575183	0.27818556132394723	0.10289811681744393	0.22409901730963114	0.24118251919177724	0.23490462712246676	0.36056828475919506	0.4341022775653467	0.4367692513637092	0.40412120973548893	0.5269150097943369	0.7232018338075715	0.42757401423685637	0.5162598129472707	0.9788302523459477	0.3629390069722533	0.4806798307667716	1.1173230114420436	0.3930113302145229	0.4742979347948842	1.1451316277666745	0.4277054425702504	0.5834308899975998	1.1503149915795072	0.045274290616212534	0.3926117118090585	0.41182729949637376	-0.03141024873094092	0.4634782608653322	0.703192288559873	-0.03132637887198698	0.47327282141169574	0.9574286416483191	0.01737213694213992	0.43463417018515865	1.0735413029873802	-0.005378029389252587	0.45010703336967145	1.1033583931228148	-0.039415284357224335	0.49307400753010294	1.103605358004354
261	4.35	0.30651867682297396	0.5321044317574596	0.9129207237855769	0.31202936410293675	0.6696677283455096	1.390452686087605	0.3220511045686567	0.7963179325663057	1.7934952018156043	0.2784553302266822	0.607677869903344	1.8518598306805585	0.3340744975222097	0.6442778905447574	1.852712349056764	0.28980272287599046	0.9189975266816829	1.8727150377891875	0.07279368680836273	0.5173601642070872	0.9194704383307425	0.07897228531790024	0.6433632283314142	1.3737847780130534	0.0830758148931973	0.777718448904513	1.801641854620492	0.1227649212685798	0.5977207064061701	1.8561698144485315	0.05184186015135842	0.637418851347249	1.8537686930269133	0.0939807890596228	0.8939186546684251	1.8597021830726894	0.20176384030746772	0.376086270509844	0.33291315436892516	0.22164507554515375	0.27810437429204876	0.10290311846646738	0.2241118244622584	0.24121757534640076	0.23490508899908918	0.36058717795491285	0.43408966933155074	0.4367800161703523	0.40409494325344963	0.5270045976550806	0.7231549289726802	0.4275912889396318	0.5162267031916702	0.9788214865075697	0.3629467573684456	0.4806484882614413	1.1172996895245055	0.39294947328956553	0.474136621158406	1.1450723586095524	0.42726035794952166	0.584535124495156	1.1539936118777736	0.04529025483277906	0.392521277742582	0.4118271827891113	-0.031409151140141596	0.46337355131067315	0.7031375139408091	-0.031339877734910926	0.4731245711099581	0.9573041588494646	0.017459748920428453	0.4348113537914185	1.0732466836552437	-0.005336994177235183	0.4499144651080481	1.1032621169835501	-0.039716590011823004	0.4904760917054617	1.1001895087308105
